<svg width="600" height="400" viewBox="0 0 600 400" fill="none" xmlns="http://www.w3.org/2000/svg">
<path d="M35 400C30.24 396.91 29.53 394.56 32 388.62C38.73 372.69 46.11 357.03 52.23 340.88C70.9077 291.593 86.6453 241.241 99.36 190.09C104.185 171.348 106.088 151.973 105 132.65C104 117.25 99.06 103.18 87.32 92.55C71.22 78 52.3 76.86 32.56 82.81C25.62 84.91 19.28 88.91 12.44 91.45C8.52 92.91 4.16 93.19 0 94V80C23.64 60.68 50.94 55 80.55 59C95.82 61.08 107.18 69.77 115.46 82.53C127.61 101.24 130.4 122.1 129.27 143.81C127.66 174.81 119.68 204.61 110.27 233.91C98.61 270 85.91 305.78 73.67 341.66C73.0119 343.249 72.6395 344.942 72.57 346.66C73.4028 345.839 74.1875 344.971 74.92 344.06C144.92 248.17 208.33 148.15 261.36 41.78C265.78 32.91 269.02 23.39 272.11 13.94C274.13 7.76 277 2.79 283 0H289C294.46 3.16 295.81 8.19 295.34 14C294.08 29.73 287.84 43.93 281.46 58C265.29 93.68 245.15 127.19 224.72 160.51C187.72 220.81 149.31 280.16 105.72 335.94C94.31 350.5 81.79 364.14 69.48 377.9C60.76 387.66 50.41 395.37 38 400H35Z" fill="#7C7A7A"/>
<path d="M600 147C599.31 147.372 598.674 147.836 598.11 148.38C568.37 186.43 538.62 224.53 514.47 266.5C507.8 278.09 503.18 290.86 497.78 303.17C496.96 305.04 497.07 307.31 496.53 310.77C500.9 308.03 504.47 306.26 507.53 303.82C528.99 286.4 550.25 268.73 571.82 251.44C575.15 248.76 579.54 247.07 583.71 245.87C587.21 244.87 590.81 246.07 592.36 250C593.91 253.93 593.57 257.47 590.22 260.45C580.38 269.19 571.01 278.52 560.67 286.62C544.44 299.32 527.78 311.52 510.84 323.26C505.67 326.85 499.16 328.95 492.95 330.49C481.6 333.28 473.66 326.78 473.06 315.06C472.56 305.17 475.66 296.06 479.06 286.97C479.45 285.97 479.78 284.86 480.49 282.77C472.85 289.49 466.16 295.64 459.17 301.43C454.176 305.583 448.947 309.446 443.51 313C440.183 315.195 436.546 316.88 432.72 318C424.53 320.3 418.49 316.44 417.09 308C416.31 303.3 416.52 298.45 416.26 293.34L408.83 297.57C394.49 305.78 379.77 313.13 363.67 317.25C350.36 320.65 342.93 315.67 341.58 302.06C340.58 291.95 342 281.79 346.76 272.92C352.882 261.707 359.691 250.882 367.15 240.51C372.67 232.72 380.78 229.64 390.5 231.95C394.04 232.79 397.66 233.27 401.91 234.04C396.77 240.64 392.01 246.75 387.26 252.87C379.004 263.343 372.664 275.191 368.53 287.87C367.72 290.41 367.92 293.27 367.66 295.99C370.31 295.51 373.36 295.72 375.56 294.46C389.13 286.69 402.79 279.03 415.84 270.46C424.68 264.66 432.84 257.7 440.84 250.79C449.36 243.46 458.12 236.61 468.66 232.51C479.2 228.41 489.71 227.79 500.58 235.28C511.35 223.15 522.7 211.21 533.07 198.47C546.72 181.68 559.58 164.24 572.85 147.14C575.65 143.412 578.679 139.862 581.92 136.51C587.15 131.27 594.11 130.85 600.01 134.99L600 147ZM491.28 248C473.1 243.76 446.07 267.9 442.93 290.52C460.25 277.61 479.87 268 491.28 248Z" fill="#7C7A7A"/>
<path d="M398 400V340.51C406.25 340.51 414 340.37 421.8 340.66C423.04 340.66 424.41 342.49 425.38 343.74C431.75 352.03 438.02 360.4 445.38 368.58V340.81H462.11C462.35 341.91 462.511 343.027 462.59 344.15C462.59 361.643 462.59 379.127 462.59 396.6C462.487 397.748 462.29 398.885 462 400H445C444.263 398.56 443.441 397.164 442.54 395.82C434.46 385.053 426.353 374.31 418.22 363.59C417.5 362.59 416.62 361.8 415 360.01V400.01L398 400Z" fill="#7C7A7A"/>
<path d="M539 400C538.81 396.86 538.47 393.73 538.46 390.59C538.4 375.77 538.46 360.94 538.46 346.11V340.45H590.73V355.45H556.44V362.76H590.76V376.82H556.44V384.5H591V400H539Z" fill="#7C7A7A"/>
<path d="M495 400C493.91 399.67 492.85 399.25 491.74 399C476.47 395.72 468.2 385.11 468.57 369.24C468.93 353.75 477.57 343.03 493.01 341.34C500.747 340.618 508.552 341.368 516.01 343.55C524.6 346 529.88 352.84 532.1 362.64C524.25 361.8 516.75 364.82 509.42 359.74C504.25 356.16 497.92 356.66 492.17 359.35C487.24 361.66 485.34 365.87 485.66 371.23C485.96 376.29 488.57 379.63 493.22 381.36C499.3 383.62 505.22 383.3 510.87 379.08H501.25V370.32H532.4C534.25 383.72 525.13 395.4 510.24 398.84C508.82 399.17 507.41 399.6 506 399.99L495 400Z" fill="#7C7A7A"/>
<path d="M284 400C283.451 399.656 282.86 399.387 282.24 399.2C264.46 396.32 254.57 382.87 258.51 361.75C258.833 360.117 259.333 358.525 260 357C265.21 344.61 281.13 338 298.05 341.15C312.35 343.82 321.42 353.94 321.96 367.83C322.66 385.72 314.63 395.71 296.78 399.24C296.154 399.428 295.551 399.683 294.98 400H284ZM289.82 357.69C281.05 357.64 275.52 361.56 274.82 368.29C274.04 376.11 277.42 380.46 285.64 382.24C294.55 384.17 302.09 380.92 304.33 374.19C307.44 364.94 301.1 357.74 289.82 357.69Z" fill="#7C7A7A"/>
<path d="M355 400C354.571 399.746 354.115 399.541 353.64 399.39C335.07 395.44 327.94 386.73 327.9 367.89C327.9 358.94 327.9 349.98 327.9 340.8H344.9C344.9 350.29 344.9 359.43 344.9 368.57C344.95 378.06 350.19 382.91 360.14 382.84C370.09 382.77 375.14 378.03 375.23 368.42C375.3 359.6 375.23 350.78 375.31 341.96C375.31 341.67 375.57 341.39 375.87 340.78H392.77C392.17 353.96 392.63 367.14 390.69 379.95C389 391.11 379.95 396.55 369.3 398.95C367.85 399.28 366.41 399.64 364.97 399.95L355 400Z" fill="#7C7A7A"/>
<path d="M198 400C198 380.86 198 361.72 198 342.58C198.058 341.976 198.162 341.378 198.31 340.79H215V382.72H255V400H198Z" fill="#7C7A7A"/>
<path d="M235.32 234.08C221.72 251 208 267.22 201.39 287.8C200.837 289.541 200.406 291.319 200.1 293.12C200.054 294.4 200.117 295.681 200.29 296.95C202.87 296.13 205.16 295.79 207.04 294.73C222.23 286.17 237.4 277.57 252.45 268.73C256.89 266.13 260.88 262.78 265.16 259.89C271.94 255.3 278.24 250.39 282.3 242.89C283.607 240.445 285.492 238.357 287.791 236.807C290.09 235.258 292.733 234.294 295.49 234C303.82 232.91 309.49 240.32 306.2 248.14C305.165 250.221 303.947 252.205 302.56 254.07C294.493 266.477 286.417 278.887 278.33 291.3C277.369 292.948 276.498 294.648 275.72 296.39L276.72 297.16C281.65 292.84 286.66 288.61 291.49 284.16C310.89 266.37 330.29 248.53 345.21 226.59C348.21 222.22 351.35 222.86 355.03 224.41C359.09 226.13 361.11 229.41 359.7 233.65C358.542 237.642 356.752 241.423 354.4 244.85C347.74 253.78 341 262.71 333.52 270.95C316.9 289.25 298.52 305.69 277.65 319.06C272.074 322.621 266.011 325.356 259.65 327.18C251.25 329.55 245.21 324.43 246.04 315.77C246.61 309.77 248.79 303.87 250.41 297.96C251.207 295.685 252.135 293.457 253.19 291.29C244.75 295.96 237.19 300.29 229.46 304.38C218.46 310.19 207.26 315.78 194.63 317.52C183.32 319.08 175.34 314.02 174.94 302.67C174.74 293.727 176.041 284.813 178.79 276.3C182.91 263.21 190.64 251.82 199.54 241.3C206.18 233.48 213.94 229.16 224.54 231.98C227.83 232.93 231.29 233.34 235.32 234.08Z" fill="#7C7A7A"/>
<path d="M238.74 221C231.39 221 226.17 216 226.17 209C226.17 202.32 233.94 195.91 241.92 196C249.14 196.08 254.68 200.41 254.7 206C254.74 214.53 247.89 221 238.74 221Z" fill="#7C7A7A"/>
<path d="M405.52 196C413.03 196 418.52 200.41 418.39 206.3C418.21 214.81 411.68 220.93 402.71 220.99C395.33 220.99 390.1 216.17 390.03 209.18C389.96 202.19 397.43 195.92 405.52 196Z" fill="#7C7A7A"/>
</svg>
